<mxfile host="app.diagrams.net" agent="Mozilla/5.0 (Windows NT 10.0; Win64; x64) AppleWebKit/537.36 (KHTML, like Gecko) Chrome/138.0.0.0 Safari/537.36 OPR/122.0.0.0" version="28.2.5">
  <diagram name="Page-1" id="935gk-mgyDyj7o7sxAbQ">
    <mxGraphModel dx="2471" dy="1357" grid="1" gridSize="10" guides="1" tooltips="1" connect="1" arrows="1" fold="1" page="1" pageScale="1" pageWidth="2000" pageHeight="2000" math="0" shadow="0">
      <root>
        <mxCell id="0" />
        <mxCell id="1" parent="0" />
        <mxCell id="0PlHV3OxmcAFYTyNckas-52" value="" style="rounded=0;whiteSpace=wrap;html=1;fillColor=none;dashed=1;dashPattern=1 4;fontSize=13;" vertex="1" parent="1">
          <mxGeometry x="160" y="920" width="1680" height="200" as="geometry" />
        </mxCell>
        <mxCell id="0PlHV3OxmcAFYTyNckas-15" value="" style="endArrow=classic;html=1;rounded=0;fontSize=13;" edge="1" parent="1">
          <mxGeometry width="50" height="50" relative="1" as="geometry">
            <mxPoint x="180" y="280" as="sourcePoint" />
            <mxPoint x="860" y="280" as="targetPoint" />
          </mxGeometry>
        </mxCell>
        <mxCell id="0PlHV3OxmcAFYTyNckas-16" value="Visit Web App" style="edgeLabel;html=1;align=center;verticalAlign=middle;resizable=0;points=[];fontSize=13;" vertex="1" connectable="0" parent="0PlHV3OxmcAFYTyNckas-15">
          <mxGeometry x="-0.1576" y="5" relative="1" as="geometry">
            <mxPoint x="26" y="-5" as="offset" />
          </mxGeometry>
        </mxCell>
        <mxCell id="0PlHV3OxmcAFYTyNckas-18" value="" style="endArrow=classic;html=1;rounded=0;dashed=1;fontSize=13;" edge="1" parent="1">
          <mxGeometry width="50" height="50" relative="1" as="geometry">
            <mxPoint x="860" y="320" as="sourcePoint" />
            <mxPoint x="180" y="320" as="targetPoint" />
          </mxGeometry>
        </mxCell>
        <mxCell id="0PlHV3OxmcAFYTyNckas-19" value="Show available combo, food and special offers" style="text;html=1;align=center;verticalAlign=middle;resizable=0;points=[];autosize=1;strokeColor=none;fillColor=none;fontSize=13;" vertex="1" parent="1">
          <mxGeometry x="195" y="298" width="290" height="30" as="geometry" />
        </mxCell>
        <mxCell id="0PlHV3OxmcAFYTyNckas-7" value="" style="endArrow=none;html=1;rounded=0;entryX=0.5;entryY=1;entryDx=0;entryDy=0;movable=1;resizable=1;rotatable=1;deletable=1;editable=1;locked=0;connectable=1;exitX=0.5;exitY=0;exitDx=0;exitDy=0;fontSize=13;" edge="1" parent="1" source="0PlHV3OxmcAFYTyNckas-80" target="0PlHV3OxmcAFYTyNckas-1">
          <mxGeometry width="50" height="50" relative="1" as="geometry">
            <mxPoint x="180" y="1480" as="sourcePoint" />
            <mxPoint x="500" y="390" as="targetPoint" />
          </mxGeometry>
        </mxCell>
        <mxCell id="0PlHV3OxmcAFYTyNckas-1" value="User" style="rounded=1;whiteSpace=wrap;html=1;movable=1;resizable=1;rotatable=1;deletable=1;editable=1;locked=0;connectable=1;fontSize=13;" vertex="1" parent="1">
          <mxGeometry x="120" y="140" width="120" height="60" as="geometry" />
        </mxCell>
        <mxCell id="0PlHV3OxmcAFYTyNckas-2" value="Frontend" style="rounded=1;whiteSpace=wrap;html=1;movable=1;resizable=1;rotatable=1;deletable=1;editable=1;locked=0;connectable=1;fontSize=13;" vertex="1" parent="1">
          <mxGeometry x="800" y="140" width="120" height="60" as="geometry" />
        </mxCell>
        <mxCell id="0PlHV3OxmcAFYTyNckas-3" value="Backend" style="rounded=1;whiteSpace=wrap;html=1;movable=1;resizable=1;rotatable=1;deletable=1;editable=1;locked=0;connectable=1;fontSize=13;" vertex="1" parent="1">
          <mxGeometry x="1120" y="140" width="120" height="60" as="geometry" />
        </mxCell>
        <mxCell id="0PlHV3OxmcAFYTyNckas-4" value="Navigation-related Service" style="rounded=1;whiteSpace=wrap;html=1;movable=1;resizable=1;rotatable=1;deletable=1;editable=1;locked=0;connectable=1;fontSize=13;" vertex="1" parent="1">
          <mxGeometry x="1480" y="140" width="120" height="60" as="geometry" />
        </mxCell>
        <mxCell id="0PlHV3OxmcAFYTyNckas-6" value="Database" style="rounded=1;whiteSpace=wrap;html=1;movable=1;resizable=1;rotatable=1;deletable=1;editable=1;locked=0;connectable=1;fontSize=13;" vertex="1" parent="1">
          <mxGeometry x="2000" y="140" width="120" height="60" as="geometry" />
        </mxCell>
        <mxCell id="0PlHV3OxmcAFYTyNckas-8" value="" style="endArrow=none;html=1;rounded=0;entryX=0.5;entryY=1;entryDx=0;entryDy=0;movable=1;resizable=1;rotatable=1;deletable=1;editable=1;locked=0;connectable=1;exitX=0.5;exitY=0;exitDx=0;exitDy=0;fontSize=13;" edge="1" parent="1" source="0PlHV3OxmcAFYTyNckas-81">
          <mxGeometry width="50" height="50" relative="1" as="geometry">
            <mxPoint x="859" y="1480" as="sourcePoint" />
            <mxPoint x="859.1700000000001" y="200" as="targetPoint" />
          </mxGeometry>
        </mxCell>
        <mxCell id="0PlHV3OxmcAFYTyNckas-9" value="" style="endArrow=none;html=1;rounded=0;entryX=0.5;entryY=1;entryDx=0;entryDy=0;movable=1;resizable=1;rotatable=1;deletable=1;editable=1;locked=0;connectable=1;exitX=0.5;exitY=0;exitDx=0;exitDy=0;fontSize=13;" edge="1" parent="1" source="0PlHV3OxmcAFYTyNckas-82">
          <mxGeometry width="50" height="50" relative="1" as="geometry">
            <mxPoint x="1180" y="1480" as="sourcePoint" />
            <mxPoint x="1180" y="200" as="targetPoint" />
          </mxGeometry>
        </mxCell>
        <mxCell id="0PlHV3OxmcAFYTyNckas-10" value="" style="endArrow=none;html=1;rounded=0;entryX=0.5;entryY=1;entryDx=0;entryDy=0;movable=1;resizable=1;rotatable=1;deletable=1;editable=1;locked=0;connectable=1;exitX=0.5;exitY=0;exitDx=0;exitDy=0;fontSize=13;" edge="1" parent="1" source="0PlHV3OxmcAFYTyNckas-83">
          <mxGeometry width="50" height="50" relative="1" as="geometry">
            <mxPoint x="1540" y="1480" as="sourcePoint" />
            <mxPoint x="1539.17" y="200" as="targetPoint" />
          </mxGeometry>
        </mxCell>
        <mxCell id="0PlHV3OxmcAFYTyNckas-12" value="" style="endArrow=none;html=1;rounded=0;entryX=0.5;entryY=1;entryDx=0;entryDy=0;movable=1;resizable=1;rotatable=1;deletable=1;editable=1;locked=0;connectable=1;exitX=0.5;exitY=0;exitDx=0;exitDy=0;fontSize=13;" edge="1" parent="1" source="0PlHV3OxmcAFYTyNckas-85">
          <mxGeometry width="50" height="50" relative="1" as="geometry">
            <mxPoint x="2059" y="1480" as="sourcePoint" />
            <mxPoint x="2059.17" y="200" as="targetPoint" />
          </mxGeometry>
        </mxCell>
        <mxCell id="0PlHV3OxmcAFYTyNckas-20" value="" style="endArrow=classic;html=1;rounded=0;movable=1;resizable=1;rotatable=1;deletable=1;editable=1;locked=0;connectable=1;fontSize=13;" edge="1" parent="1">
          <mxGeometry width="50" height="50" relative="1" as="geometry">
            <mxPoint x="180" y="360" as="sourcePoint" />
            <mxPoint x="860" y="360" as="targetPoint" />
          </mxGeometry>
        </mxCell>
        <mxCell id="0PlHV3OxmcAFYTyNckas-21" value="User choose food and press &quot;Add to cart&quot;" style="edgeLabel;html=1;align=center;verticalAlign=middle;resizable=0;points=[];fontSize=13;" vertex="1" connectable="0" parent="0PlHV3OxmcAFYTyNckas-20">
          <mxGeometry x="-0.1576" y="5" relative="1" as="geometry">
            <mxPoint x="26" y="-5" as="offset" />
          </mxGeometry>
        </mxCell>
        <mxCell id="0PlHV3OxmcAFYTyNckas-23" value="" style="endArrow=classic;html=1;rounded=0;movable=1;resizable=1;rotatable=1;deletable=1;editable=1;locked=0;connectable=1;fontSize=13;" edge="1" parent="1">
          <mxGeometry width="50" height="50" relative="1" as="geometry">
            <mxPoint x="860" y="400" as="sourcePoint" />
            <mxPoint x="1180" y="400" as="targetPoint" />
          </mxGeometry>
        </mxCell>
        <mxCell id="0PlHV3OxmcAFYTyNckas-24" value="Request available airway" style="edgeLabel;html=1;align=center;verticalAlign=middle;resizable=0;points=[];fontSize=13;" vertex="1" connectable="0" parent="0PlHV3OxmcAFYTyNckas-23">
          <mxGeometry x="-0.1576" y="5" relative="1" as="geometry">
            <mxPoint x="26" y="-5" as="offset" />
          </mxGeometry>
        </mxCell>
        <mxCell id="0PlHV3OxmcAFYTyNckas-29" value="" style="group;fontSize=13;" vertex="1" connectable="0" parent="1">
          <mxGeometry x="1130" y="420" width="135" height="42" as="geometry" />
        </mxCell>
        <mxCell id="0PlHV3OxmcAFYTyNckas-26" value="" style="endArrow=classic;html=1;rounded=0;edgeStyle=orthogonalEdgeStyle;curved=1;fontSize=13;" edge="1" parent="0PlHV3OxmcAFYTyNckas-29">
          <mxGeometry width="50" height="50" relative="1" as="geometry">
            <mxPoint x="50" y="22" as="sourcePoint" />
            <mxPoint x="50" y="42" as="targetPoint" />
            <Array as="points">
              <mxPoint x="90" y="22" />
              <mxPoint x="90" y="42" />
            </Array>
          </mxGeometry>
        </mxCell>
        <mxCell id="0PlHV3OxmcAFYTyNckas-28" value="Calculating airway" style="text;html=1;align=center;verticalAlign=middle;resizable=0;points=[];autosize=1;strokeColor=none;fillColor=none;fontSize=13;" vertex="1" parent="0PlHV3OxmcAFYTyNckas-29">
          <mxGeometry width="130" height="30" as="geometry" />
        </mxCell>
        <mxCell id="0PlHV3OxmcAFYTyNckas-31" value="" style="endArrow=classic;html=1;rounded=0;movable=1;resizable=1;rotatable=1;deletable=1;editable=1;locked=0;connectable=1;fontSize=13;" edge="1" parent="1">
          <mxGeometry width="50" height="50" relative="1" as="geometry">
            <mxPoint x="1180" y="520" as="sourcePoint" />
            <mxPoint x="1540" y="520" as="targetPoint" />
          </mxGeometry>
        </mxCell>
        <mxCell id="0PlHV3OxmcAFYTyNckas-32" value="Validating airway" style="edgeLabel;html=1;align=center;verticalAlign=middle;resizable=0;points=[];fontSize=13;" vertex="1" connectable="0" parent="0PlHV3OxmcAFYTyNckas-31">
          <mxGeometry x="-0.1576" y="5" relative="1" as="geometry">
            <mxPoint x="26" y="-5" as="offset" />
          </mxGeometry>
        </mxCell>
        <mxCell id="0PlHV3OxmcAFYTyNckas-54" value="alt" style="shape=card;whiteSpace=wrap;html=1;direction=south;flipV=1;fillColor=default;size=20;fontSize=13;" vertex="1" parent="1">
          <mxGeometry x="160" y="920" width="80" height="40" as="geometry" />
        </mxCell>
        <mxCell id="0PlHV3OxmcAFYTyNckas-61" value="Delivering not available" style="text;html=1;align=center;verticalAlign=middle;resizable=0;points=[];autosize=1;strokeColor=none;fillColor=none;fontSize=13;" vertex="1" parent="1">
          <mxGeometry x="920" y="930" width="160" height="30" as="geometry" />
        </mxCell>
        <mxCell id="0PlHV3OxmcAFYTyNckas-75" value="" style="endArrow=classic;html=1;rounded=0;movable=1;resizable=1;rotatable=1;deletable=1;editable=1;locked=0;connectable=1;fontSize=13;" edge="1" parent="1">
          <mxGeometry width="50" height="50" relative="1" as="geometry">
            <mxPoint x="180" y="1160" as="sourcePoint" />
            <mxPoint x="1180" y="1160" as="targetPoint" />
          </mxGeometry>
        </mxCell>
        <mxCell id="0PlHV3OxmcAFYTyNckas-76" value="Complete payment" style="edgeLabel;html=1;align=center;verticalAlign=middle;resizable=0;points=[];fontSize=13;" vertex="1" connectable="0" parent="0PlHV3OxmcAFYTyNckas-75">
          <mxGeometry x="-0.1576" y="5" relative="1" as="geometry">
            <mxPoint x="70" y="-5" as="offset" />
          </mxGeometry>
        </mxCell>
        <mxCell id="0PlHV3OxmcAFYTyNckas-80" value="User" style="rounded=1;whiteSpace=wrap;html=1;movable=1;resizable=1;rotatable=1;deletable=1;editable=1;locked=0;connectable=1;fontSize=13;" vertex="1" parent="1">
          <mxGeometry x="120" y="1500" width="120" height="60" as="geometry" />
        </mxCell>
        <mxCell id="0PlHV3OxmcAFYTyNckas-81" value="Frontend" style="rounded=1;whiteSpace=wrap;html=1;movable=1;resizable=1;rotatable=1;deletable=1;editable=1;locked=0;connectable=1;fontSize=13;" vertex="1" parent="1">
          <mxGeometry x="800" y="1500" width="120" height="60" as="geometry" />
        </mxCell>
        <mxCell id="0PlHV3OxmcAFYTyNckas-82" value="Backend" style="rounded=1;whiteSpace=wrap;html=1;movable=1;resizable=1;rotatable=1;deletable=1;editable=1;locked=0;connectable=1;fontSize=13;" vertex="1" parent="1">
          <mxGeometry x="1120" y="1500" width="120" height="60" as="geometry" />
        </mxCell>
        <mxCell id="0PlHV3OxmcAFYTyNckas-83" value="PaymentService" style="rounded=1;whiteSpace=wrap;html=1;movable=1;resizable=1;rotatable=1;deletable=1;editable=1;locked=0;connectable=1;fontSize=13;" vertex="1" parent="1">
          <mxGeometry x="1480" y="1500" width="120" height="60" as="geometry" />
        </mxCell>
        <mxCell id="0PlHV3OxmcAFYTyNckas-85" value="Database" style="rounded=1;whiteSpace=wrap;html=1;movable=1;resizable=1;rotatable=1;deletable=1;editable=1;locked=0;connectable=1;fontSize=13;" vertex="1" parent="1">
          <mxGeometry x="2000" y="1500" width="120" height="60" as="geometry" />
        </mxCell>
        <mxCell id="0PlHV3OxmcAFYTyNckas-86" value="Drone Assigment" style="rounded=1;whiteSpace=wrap;html=1;movable=1;resizable=1;rotatable=1;deletable=1;editable=1;locked=0;connectable=1;fontSize=13;" vertex="1" parent="1">
          <mxGeometry x="1760" y="140" width="120" height="60" as="geometry" />
        </mxCell>
        <mxCell id="0PlHV3OxmcAFYTyNckas-87" value="" style="endArrow=none;html=1;rounded=0;entryX=0.5;entryY=1;entryDx=0;entryDy=0;movable=1;resizable=1;rotatable=1;deletable=1;editable=1;locked=0;connectable=1;exitX=0.5;exitY=0;exitDx=0;exitDy=0;fontSize=13;" edge="1" parent="1" source="0PlHV3OxmcAFYTyNckas-88">
          <mxGeometry width="50" height="50" relative="1" as="geometry">
            <mxPoint x="1819" y="1480" as="sourcePoint" />
            <mxPoint x="1819.17" y="200" as="targetPoint" />
          </mxGeometry>
        </mxCell>
        <mxCell id="0PlHV3OxmcAFYTyNckas-88" value="Database" style="rounded=1;whiteSpace=wrap;html=1;movable=1;resizable=1;rotatable=1;deletable=1;editable=1;locked=0;connectable=1;fontSize=13;" vertex="1" parent="1">
          <mxGeometry x="1760" y="1500" width="120" height="60" as="geometry" />
        </mxCell>
        <mxCell id="0PlHV3OxmcAFYTyNckas-93" value="Admin Dashboard" style="rounded=1;whiteSpace=wrap;html=1;movable=1;resizable=1;rotatable=1;deletable=1;editable=1;locked=0;connectable=1;fontSize=13;" vertex="1" parent="1">
          <mxGeometry x="460" y="140" width="120" height="60" as="geometry" />
        </mxCell>
        <mxCell id="0PlHV3OxmcAFYTyNckas-94" value="" style="endArrow=none;html=1;rounded=0;entryX=0.5;entryY=1;entryDx=0;entryDy=0;movable=1;resizable=1;rotatable=1;deletable=1;editable=1;locked=0;connectable=1;exitX=0.5;exitY=0;exitDx=0;exitDy=0;fontSize=13;" edge="1" parent="1" source="0PlHV3OxmcAFYTyNckas-95">
          <mxGeometry width="50" height="50" relative="1" as="geometry">
            <mxPoint x="519" y="1480" as="sourcePoint" />
            <mxPoint x="519.1700000000001" y="200" as="targetPoint" />
          </mxGeometry>
        </mxCell>
        <mxCell id="0PlHV3OxmcAFYTyNckas-95" value="Frontend" style="rounded=1;whiteSpace=wrap;html=1;movable=1;resizable=1;rotatable=1;deletable=1;editable=1;locked=0;connectable=1;fontSize=13;" vertex="1" parent="1">
          <mxGeometry x="460" y="1500" width="120" height="60" as="geometry" />
        </mxCell>
        <mxCell id="0PlHV3OxmcAFYTyNckas-96" value="" style="group;fontSize=13;" vertex="1" connectable="0" parent="1">
          <mxGeometry x="1490" y="540" width="170" height="42" as="geometry" />
        </mxCell>
        <mxCell id="0PlHV3OxmcAFYTyNckas-97" value="" style="endArrow=classic;html=1;rounded=0;edgeStyle=orthogonalEdgeStyle;curved=1;fontSize=13;" edge="1" parent="0PlHV3OxmcAFYTyNckas-96">
          <mxGeometry width="50" height="50" relative="1" as="geometry">
            <mxPoint x="50" y="22" as="sourcePoint" />
            <mxPoint x="50" y="42" as="targetPoint" />
            <Array as="points">
              <mxPoint x="90" y="22" />
              <mxPoint x="90" y="42" />
            </Array>
          </mxGeometry>
        </mxCell>
        <mxCell id="0PlHV3OxmcAFYTyNckas-98" value="Checking weather and air traffic" style="text;html=1;align=center;verticalAlign=middle;resizable=0;points=[];autosize=1;strokeColor=none;fillColor=none;fontSize=13;" vertex="1" parent="0PlHV3OxmcAFYTyNckas-96">
          <mxGeometry x="-40" width="210" height="30" as="geometry" />
        </mxCell>
        <mxCell id="0PlHV3OxmcAFYTyNckas-99" value="" style="endArrow=classic;html=1;rounded=0;movable=1;resizable=1;rotatable=1;deletable=1;editable=1;locked=0;connectable=1;fontSize=13;" edge="1" parent="1">
          <mxGeometry width="50" height="50" relative="1" as="geometry">
            <mxPoint x="1540" y="640" as="sourcePoint" />
            <mxPoint x="1820" y="640" as="targetPoint" />
          </mxGeometry>
        </mxCell>
        <mxCell id="0PlHV3OxmcAFYTyNckas-100" value="Validating airway" style="edgeLabel;html=1;align=center;verticalAlign=middle;resizable=0;points=[];fontSize=13;" vertex="1" connectable="0" parent="0PlHV3OxmcAFYTyNckas-99">
          <mxGeometry x="-0.1576" y="5" relative="1" as="geometry">
            <mxPoint x="26" y="-5" as="offset" />
          </mxGeometry>
        </mxCell>
        <mxCell id="0PlHV3OxmcAFYTyNckas-101" value="" style="group;fontSize=13;" vertex="1" connectable="0" parent="1">
          <mxGeometry x="1770" y="660" width="170" height="42" as="geometry" />
        </mxCell>
        <mxCell id="0PlHV3OxmcAFYTyNckas-102" value="" style="endArrow=classic;html=1;rounded=0;edgeStyle=orthogonalEdgeStyle;curved=1;fontSize=13;" edge="1" parent="0PlHV3OxmcAFYTyNckas-101">
          <mxGeometry width="50" height="50" relative="1" as="geometry">
            <mxPoint x="50" y="22" as="sourcePoint" />
            <mxPoint x="50" y="42" as="targetPoint" />
            <Array as="points">
              <mxPoint x="90" y="22" />
              <mxPoint x="90" y="42" />
            </Array>
          </mxGeometry>
        </mxCell>
        <mxCell id="0PlHV3OxmcAFYTyNckas-103" value="Searching for suitable drone" style="text;html=1;align=center;verticalAlign=middle;resizable=0;points=[];autosize=1;strokeColor=none;fillColor=none;fontSize=13;" vertex="1" parent="0PlHV3OxmcAFYTyNckas-101">
          <mxGeometry x="-30" width="190" height="30" as="geometry" />
        </mxCell>
        <mxCell id="0PlHV3OxmcAFYTyNckas-106" value="" style="endArrow=classic;html=1;rounded=0;fontSize=13;dashed=1;" edge="1" parent="1">
          <mxGeometry width="50" height="50" relative="1" as="geometry">
            <mxPoint x="1820" y="760" as="sourcePoint" />
            <mxPoint x="1540" y="760" as="targetPoint" />
          </mxGeometry>
        </mxCell>
        <mxCell id="0PlHV3OxmcAFYTyNckas-107" value="Drones found, ready to deliver" style="edgeLabel;html=1;align=center;verticalAlign=middle;resizable=0;points=[];fontSize=13;" vertex="1" connectable="0" parent="0PlHV3OxmcAFYTyNckas-106">
          <mxGeometry x="-0.0313" y="-4" relative="1" as="geometry">
            <mxPoint x="-6" y="-6" as="offset" />
          </mxGeometry>
        </mxCell>
        <mxCell id="0PlHV3OxmcAFYTyNckas-110" value="" style="endArrow=classic;html=1;rounded=0;fontSize=13;dashed=1;" edge="1" parent="1">
          <mxGeometry width="50" height="50" relative="1" as="geometry">
            <mxPoint x="1540" y="800" as="sourcePoint" />
            <mxPoint x="1180" y="800" as="targetPoint" />
          </mxGeometry>
        </mxCell>
        <mxCell id="0PlHV3OxmcAFYTyNckas-111" value="Notify that drones and airways are available" style="edgeLabel;html=1;align=center;verticalAlign=middle;resizable=0;points=[];fontSize=13;" vertex="1" connectable="0" parent="0PlHV3OxmcAFYTyNckas-110">
          <mxGeometry x="-0.0313" y="-4" relative="1" as="geometry">
            <mxPoint x="-6" y="-6" as="offset" />
          </mxGeometry>
        </mxCell>
        <mxCell id="0PlHV3OxmcAFYTyNckas-112" value="" style="endArrow=classic;html=1;rounded=0;fontSize=13;dashed=1;" edge="1" parent="1">
          <mxGeometry width="50" height="50" relative="1" as="geometry">
            <mxPoint x="1180" y="840" as="sourcePoint" />
            <mxPoint x="860" y="840" as="targetPoint" />
          </mxGeometry>
        </mxCell>
        <mxCell id="0PlHV3OxmcAFYTyNckas-113" value="Notify that drones and airways are available" style="edgeLabel;html=1;align=center;verticalAlign=middle;resizable=0;points=[];fontSize=13;" vertex="1" connectable="0" parent="0PlHV3OxmcAFYTyNckas-112">
          <mxGeometry x="-0.0313" y="-4" relative="1" as="geometry">
            <mxPoint x="-6" y="-6" as="offset" />
          </mxGeometry>
        </mxCell>
        <mxCell id="0PlHV3OxmcAFYTyNckas-114" value="" style="endArrow=classic;html=1;rounded=0;fontSize=13;dashed=1;" edge="1" parent="1">
          <mxGeometry width="50" height="50" relative="1" as="geometry">
            <mxPoint x="860" y="880" as="sourcePoint" />
            <mxPoint x="180" y="880" as="targetPoint" />
          </mxGeometry>
        </mxCell>
        <mxCell id="0PlHV3OxmcAFYTyNckas-115" value="Show user the orders are eady for payment and shipping" style="edgeLabel;html=1;align=center;verticalAlign=middle;resizable=0;points=[];fontSize=13;" vertex="1" connectable="0" parent="0PlHV3OxmcAFYTyNckas-114">
          <mxGeometry x="-0.0313" y="-4" relative="1" as="geometry">
            <mxPoint x="-6" y="-6" as="offset" />
          </mxGeometry>
        </mxCell>
        <mxCell id="0PlHV3OxmcAFYTyNckas-118" value="" style="endArrow=classic;html=1;rounded=0;fontSize=13;dashed=1;" edge="1" parent="1">
          <mxGeometry width="50" height="50" relative="1" as="geometry">
            <mxPoint x="1820" y="957.78" as="sourcePoint" />
            <mxPoint x="1540" y="957.78" as="targetPoint" />
          </mxGeometry>
        </mxCell>
        <mxCell id="0PlHV3OxmcAFYTyNckas-119" value="Return &quot;Not able to deliver&quot; and reasons" style="edgeLabel;html=1;align=center;verticalAlign=middle;resizable=0;points=[];fontSize=13;" vertex="1" connectable="0" parent="0PlHV3OxmcAFYTyNckas-118">
          <mxGeometry x="-0.0313" y="-4" relative="1" as="geometry">
            <mxPoint x="-6" y="-6" as="offset" />
          </mxGeometry>
        </mxCell>
        <mxCell id="0PlHV3OxmcAFYTyNckas-120" value="" style="endArrow=classic;html=1;rounded=0;fontSize=13;dashed=1;" edge="1" parent="1">
          <mxGeometry width="50" height="50" relative="1" as="geometry">
            <mxPoint x="1540" y="1000" as="sourcePoint" />
            <mxPoint x="1180" y="1000" as="targetPoint" />
          </mxGeometry>
        </mxCell>
        <mxCell id="0PlHV3OxmcAFYTyNckas-121" value="Return &quot;Not able to deliver&quot; and reasons" style="edgeLabel;html=1;align=center;verticalAlign=middle;resizable=0;points=[];fontSize=13;" vertex="1" connectable="0" parent="0PlHV3OxmcAFYTyNckas-120">
          <mxGeometry x="-0.0313" y="-4" relative="1" as="geometry">
            <mxPoint x="-6" y="-6" as="offset" />
          </mxGeometry>
        </mxCell>
        <mxCell id="0PlHV3OxmcAFYTyNckas-122" value="" style="endArrow=classic;html=1;rounded=0;fontSize=13;dashed=1;" edge="1" parent="1">
          <mxGeometry width="50" height="50" relative="1" as="geometry">
            <mxPoint x="1180" y="1040" as="sourcePoint" />
            <mxPoint x="860" y="1040" as="targetPoint" />
          </mxGeometry>
        </mxCell>
        <mxCell id="0PlHV3OxmcAFYTyNckas-123" value="Return &quot;Not able to deliver&quot; and reasons" style="edgeLabel;html=1;align=center;verticalAlign=middle;resizable=0;points=[];fontSize=13;" vertex="1" connectable="0" parent="0PlHV3OxmcAFYTyNckas-122">
          <mxGeometry x="-0.0313" y="-4" relative="1" as="geometry">
            <mxPoint x="-6" y="-6" as="offset" />
          </mxGeometry>
        </mxCell>
        <mxCell id="0PlHV3OxmcAFYTyNckas-124" value="" style="endArrow=classic;html=1;rounded=0;fontSize=13;dashed=1;" edge="1" parent="1">
          <mxGeometry width="50" height="50" relative="1" as="geometry">
            <mxPoint x="860" y="1079.17" as="sourcePoint" />
            <mxPoint x="180" y="1079" as="targetPoint" />
          </mxGeometry>
        </mxCell>
        <mxCell id="0PlHV3OxmcAFYTyNckas-125" value="Return &quot;Not able to deliver&quot; and reasons" style="edgeLabel;html=1;align=center;verticalAlign=middle;resizable=0;points=[];fontSize=13;" vertex="1" connectable="0" parent="0PlHV3OxmcAFYTyNckas-124">
          <mxGeometry x="-0.0313" y="-4" relative="1" as="geometry">
            <mxPoint x="-6" y="-6" as="offset" />
          </mxGeometry>
        </mxCell>
        <mxCell id="0PlHV3OxmcAFYTyNckas-126" value="" style="endArrow=classic;html=1;rounded=0;fontSize=13;" edge="1" parent="1">
          <mxGeometry width="50" height="50" relative="1" as="geometry">
            <mxPoint x="2060" y="1240" as="sourcePoint" />
            <mxPoint x="1180" y="1240" as="targetPoint" />
          </mxGeometry>
        </mxCell>
        <mxCell id="0PlHV3OxmcAFYTyNckas-127" value="Sending drones real-time location and other data" style="edgeLabel;html=1;align=center;verticalAlign=middle;resizable=0;points=[];fontSize=13;" vertex="1" connectable="0" parent="0PlHV3OxmcAFYTyNckas-126">
          <mxGeometry x="-0.0313" y="-4" relative="1" as="geometry">
            <mxPoint x="-6" y="-6" as="offset" />
          </mxGeometry>
        </mxCell>
        <mxCell id="0PlHV3OxmcAFYTyNckas-128" value="" style="endArrow=classic;html=1;rounded=0;movable=1;resizable=1;rotatable=1;deletable=1;editable=1;locked=0;connectable=1;fontSize=13;" edge="1" parent="1">
          <mxGeometry width="50" height="50" relative="1" as="geometry">
            <mxPoint x="1180" y="1200" as="sourcePoint" />
            <mxPoint x="2060" y="1200" as="targetPoint" />
          </mxGeometry>
        </mxCell>
        <mxCell id="0PlHV3OxmcAFYTyNckas-129" value="Save order information to database" style="edgeLabel;html=1;align=center;verticalAlign=middle;resizable=0;points=[];fontSize=13;" vertex="1" connectable="0" parent="0PlHV3OxmcAFYTyNckas-128">
          <mxGeometry x="-0.1576" y="5" relative="1" as="geometry">
            <mxPoint x="70" y="-5" as="offset" />
          </mxGeometry>
        </mxCell>
        <mxCell id="0PlHV3OxmcAFYTyNckas-130" value="" style="endArrow=classic;html=1;rounded=0;fontSize=13;dashed=1;" edge="1" parent="1">
          <mxGeometry width="50" height="50" relative="1" as="geometry">
            <mxPoint x="1180" y="1280" as="sourcePoint" />
            <mxPoint x="520" y="1280" as="targetPoint" />
          </mxGeometry>
        </mxCell>
        <mxCell id="0PlHV3OxmcAFYTyNckas-131" value="Real-time drone tracking" style="edgeLabel;html=1;align=center;verticalAlign=middle;resizable=0;points=[];fontSize=13;" vertex="1" connectable="0" parent="0PlHV3OxmcAFYTyNckas-130">
          <mxGeometry x="-0.0313" y="-4" relative="1" as="geometry">
            <mxPoint x="-200" y="-6" as="offset" />
          </mxGeometry>
        </mxCell>
        <mxCell id="0PlHV3OxmcAFYTyNckas-132" value="" style="endArrow=classic;html=1;rounded=0;dashed=1;" edge="1" parent="1">
          <mxGeometry width="50" height="50" relative="1" as="geometry">
            <mxPoint x="520" y="1280" as="sourcePoint" />
            <mxPoint x="180" y="1280" as="targetPoint" />
          </mxGeometry>
        </mxCell>
        <mxCell id="0PlHV3OxmcAFYTyNckas-133" value="" style="endArrow=classic;html=1;rounded=0;fontSize=13;dashed=1;" edge="1" parent="1">
          <mxGeometry width="50" height="50" relative="1" as="geometry">
            <mxPoint x="1180" y="1320" as="sourcePoint" />
            <mxPoint x="520" y="1320" as="targetPoint" />
          </mxGeometry>
        </mxCell>
        <mxCell id="0PlHV3OxmcAFYTyNckas-134" value="Order statuses and other information" style="edgeLabel;html=1;align=center;verticalAlign=middle;resizable=0;points=[];fontSize=13;" vertex="1" connectable="0" parent="0PlHV3OxmcAFYTyNckas-133">
          <mxGeometry x="-0.0313" y="-4" relative="1" as="geometry">
            <mxPoint x="-20" y="-6" as="offset" />
          </mxGeometry>
        </mxCell>
        <mxCell id="0PlHV3OxmcAFYTyNckas-135" value="" style="endArrow=classic;html=1;rounded=0;movable=1;resizable=1;rotatable=1;deletable=1;editable=1;locked=0;connectable=1;fontSize=13;" edge="1" parent="1">
          <mxGeometry width="50" height="50" relative="1" as="geometry">
            <mxPoint x="180" y="1360" as="sourcePoint" />
            <mxPoint x="1180" y="1360" as="targetPoint" />
          </mxGeometry>
        </mxCell>
        <mxCell id="0PlHV3OxmcAFYTyNckas-136" value="Succesfully delivery" style="edgeLabel;html=1;align=center;verticalAlign=middle;resizable=0;points=[];fontSize=13;" vertex="1" connectable="0" parent="0PlHV3OxmcAFYTyNckas-135">
          <mxGeometry x="-0.1576" y="5" relative="1" as="geometry">
            <mxPoint x="70" y="-5" as="offset" />
          </mxGeometry>
        </mxCell>
        <mxCell id="0PlHV3OxmcAFYTyNckas-137" value="" style="endArrow=classic;html=1;rounded=0;movable=1;resizable=1;rotatable=1;deletable=1;editable=1;locked=0;connectable=1;fontSize=13;" edge="1" parent="1">
          <mxGeometry width="50" height="50" relative="1" as="geometry">
            <mxPoint x="1180" y="1400" as="sourcePoint" />
            <mxPoint x="2060" y="1400" as="targetPoint" />
          </mxGeometry>
        </mxCell>
        <mxCell id="0PlHV3OxmcAFYTyNckas-138" value="Update order status to database" style="edgeLabel;html=1;align=center;verticalAlign=middle;resizable=0;points=[];fontSize=13;" vertex="1" connectable="0" parent="0PlHV3OxmcAFYTyNckas-137">
          <mxGeometry x="-0.1576" y="5" relative="1" as="geometry">
            <mxPoint x="70" y="-5" as="offset" />
          </mxGeometry>
        </mxCell>
      </root>
    </mxGraphModel>
  </diagram>
</mxfile>
